<?xml version="1.0" standalone="no"?>
<!DOCTYPE svg PUBLIC "-//W3C//DTD SVG 20010904//EN"
 "http://www.w3.org/TR/2001/REC-SVG-20010904/DTD/svg10.dtd">
<svg version="1.0" xmlns="http://www.w3.org/2000/svg"
 width="561.000000pt" height="561.000000pt" viewBox="0 0 561.000000 561.000000"
 preserveAspectRatio="xMidYMid meet">
<metadata>
Created by potrace 1.14, written by Peter Selinger 2001-2017
</metadata>
<g transform="translate(0.000000,561.000000) scale(0.100000,-0.100000)"
fill="#000000" stroke="none">
<path d="M3791 4780 c-250 -66 -454 -257 -537 -505 -36 -109 -45 -289 -19
-397 73 -298 285 -510 583 -583 113 -27 289 -18 404 22 316 109 521 396 520
728 -1 361 -256 672 -610 744 -85 18 -256 13 -341 -9z m396 -215 c149 -61 261
-173 316 -316 84 -216 37 -441 -127 -605 -124 -124 -250 -171 -431 -161 -83 4
-114 10 -175 36 -140 58 -253 170 -312 311 -26 62 -32 92 -36 175 -5 123 8
192 55 288 44 88 153 201 233 242 107 55 154 65 285 62 106 -3 128 -6 192 -32z"/>
<path d="M3940 4393 c-49 -25 -60 -54 -60 -160 l0 -93 -101 0 c-98 0 -101 -1
-130 -29 -21 -22 -29 -39 -29 -66 0 -80 40 -105 170 -105 l90 0 0 -90 c0 -130
25 -170 105 -170 27 0 44 8 66 29 28 29 29 32 29 130 l0 101 89 0 c107 0 134
9 161 52 27 43 20 84 -20 121 -29 26 -35 27 -130 27 l-100 0 0 100 c0 95 -1
101 -27 129 -36 39 -69 46 -113 24z"/>
<path d="M878 4524 c-57 -31 -66 -107 -19 -155 l29 -29 236 0 c236 0 236 0
246 -22 5 -13 37 -198 70 -413 34 -214 72 -457 85 -540 54 -344 157 -994 165
-1045 32 -207 41 -261 50 -309 13 -72 62 -138 125 -171 l49 -25 1011 -3 c555
-2 1030 0 1054 3 94 14 133 104 72 166 l-29 29 -1029 0 c-566 0 -1034 4 -1042
9 -11 7 -60 264 -61 319 0 9 203 12 983 12 l982 0 51 24 c28 13 63 39 77 57
14 19 62 133 107 254 44 121 85 230 90 243 49 116 -96 209 -165 106 -11 -17
-58 -132 -104 -257 l-84 -227 -986 0 -986 0 -28 183 c-28 183 -79 501 -97 612
-17 106 -59 368 -66 418 l-6 47 649 0 c720 0 680 -4 709 66 12 29 12 39 0 68
-28 68 -2 66 -734 66 l-658 0 -24 158 c-31 215 -42 247 -99 302 -67 65 -91 70
-362 70 -187 -1 -239 -4 -261 -16z"/>
<path d="M2175 1606 c-160 -39 -271 -167 -283 -326 -6 -88 11 -156 58 -228 91
-142 275 -202 433 -142 81 30 165 111 203 192 24 53 28 76 29 148 0 75 -4 93
-31 150 -52 108 -133 174 -249 204 -69 18 -92 19 -160 2z m156 -212 c90 -45
116 -169 52 -244 -77 -92 -221 -81 -273 21 -76 147 74 298 221 223z"/>
<path d="M3497 1604 c-258 -62 -363 -373 -196 -583 92 -118 267 -165 412 -111
69 26 153 99 189 167 119 219 -12 486 -261 533 -65 12 -71 12 -144 -6z m165
-210 c15 -8 39 -30 55 -50 23 -31 28 -47 28 -94 0 -47 -5 -63 -28 -94 -99
-130 -297 -67 -297 94 0 128 126 203 242 144z"/>
</g>
</svg>
